<svg xmlns="http://www.w3.org/2000/svg" viewBox="0 0 328.88 317.47"><defs><style>.cls-1{isolation:isolate;}.cls-2{font-size:27.76px;font-family:ArialMT, Arial;}</style></defs><title>2_UN_РОССИЙСКИЙ НАЦИОНАЛЬНЫЙ КЛУБ ПОРОДЫ МОПС</title><g id="Слой_2" data-name="Слой 2"><g id="Многоугольник_3" data-name="Многоугольник 3" class="cls-1"><text class="cls-2" transform="translate(97.63 288.54) rotate(-147.89)">Р</text><text class="cls-2" transform="matrix(-0.77, -0.64, 0.64, -0.77, 82.34, 279.12)">О</text><text class="cls-2" transform="translate(65.83 265.19) rotate(-131.56)">С</text><text class="cls-2" transform="translate(52.5 250.14) rotate(-123.42)">С</text><text class="cls-2" transform="matrix(-0.43, -0.9, 0.9, -0.43, 41.44, 233.38)">И</text><text class="cls-2" transform="translate(32.92 215.32) rotate(-107.08)">Й</text><text class="cls-2" transform="translate(27.05 196.21) rotate(-98.88)">С</text><text class="cls-2" transform="matrix(-0.03, -1, 1, -0.03, 24.08, 176.36)">К</text><text class="cls-2" transform="translate(23.52 160.17) rotate(-84.28)">И</text><text class="cls-2" transform="matrix(0.24, -0.97, 0.97, 0.24, 25.52, 140.28)">Й</text><text class="cls-2" transform="translate(30.6 120.97) rotate(-70.44)"> </text><text class="cls-2" transform="translate(32.9 113.58) rotate(-64.75)">Н</text><text class="cls-2" transform="translate(41.51 95.45) rotate(-56.88)">А</text><text class="cls-2" transform="translate(51.59 79.88) rotate(-48.96)">Ц</text><text class="cls-2" transform="translate(65.11 64.38) rotate(-40.76)">И</text><text class="cls-2" transform="translate(80.21 51.29) rotate(-32.33)">О</text><text class="cls-2" transform="translate(98.52 39.77) rotate(-23.83)">Н</text><text class="cls-2" transform="translate(116.91 31.71) rotate(-15.91)">А</text><text class="cls-2" transform="translate(135.35 26.51) rotate(-8.13)">Л</text><text class="cls-2" transform="translate(153.4 23.96) rotate(-0.93)">Ь</text><text class="cls-2" transform="matrix(0.99, 0.12, -0.12, 0.99, 171.66, 23.63)">Н</text><text class="cls-2" transform="translate(191.65 25.88) rotate(16.08)">Ы</text><text class="cls-2" transform="translate(215.22 32.87) rotate(25.2)">Й</text><text class="cls-2" transform="matrix(0.86, 0.51, -0.51, 0.86, 233.14, 41.63)"> </text><text class="cls-2" transform="translate(239.88 45.45) rotate(35.72)">К</text><text class="cls-2" transform="matrix(0.74, 0.68, -0.68, 0.74, 253.06, 54.85)">Л</text><text class="cls-2" transform="translate(266.45 67.23) rotate(49.94)">У</text><text class="cls-2" transform="matrix(0.54, 0.84, -0.84, 0.54, 277.84, 80.75)">Б</text><text class="cls-2" transform="matrix(0.46, 0.89, -0.89, 0.46, 287.49, 96.18)"> </text><text class="cls-2" transform="matrix(0.37, 0.93, -0.93, 0.37, 291.33, 102.9)">П</text><text class="cls-2" transform="translate(298.82 121.47) rotate(76.71)">О</text><text class="cls-2" transform="translate(303.68 142.52) rotate(84.89)">Р</text><text class="cls-2" transform="matrix(-0.05, 1, -1, -0.05, 305.42, 160.37)">О</text><text class="cls-2" transform="translate(304.37 181.38) rotate(100.67)">Д</text><text class="cls-2" transform="translate(301.1 199.93) rotate(109.56)">Ы</text><text class="cls-2" transform="translate(292.41 222.94) rotate(116.19)"> </text><text class="cls-2" transform="matrix(-0.54, 0.84, -0.84, -0.54, 289.38, 230.07)">М</text><text class="cls-2" transform="translate(276.88 249.59) rotate(131.55)">О</text><text class="cls-2" transform="matrix(-0.77, 0.64, -0.64, -0.77, 262.48, 265.73)">П</text><text class="cls-2" transform="matrix(-0.85, 0.53, -0.53, -0.85, 247.18, 278.59)">С</text><text class="cls-2" transform="translate(230.02 288.92) rotate(153.75)"> </text><text class="cls-2" transform="translate(223.09 292.33) rotate(156.91)"> </text></g></g></svg>